<mxfile host="app.diagrams.net" modified="2021-02-15T15:44:12.378Z" agent="5.0 (Windows NT 10.0; Win64; x64) AppleWebKit/537.36 (KHTML, like Gecko) Chrome/88.0.4324.150 Safari/537.36" etag="o8erCTZI1IxfY3wfKcNC" version="14.3.2" type="github">
  <diagram id="ih7-6qDOCM5Qj83spW9n" name="Page-1">
    <mxGraphModel dx="1038" dy="548" grid="1" gridSize="10" guides="1" tooltips="1" connect="1" arrows="1" fold="1" page="1" pageScale="1" pageWidth="827" pageHeight="1169" math="0" shadow="0">
      <root>
        <mxCell id="0" />
        <mxCell id="1" parent="0" />
        <mxCell id="E54G0jagETd4hcooSOa8-43" value="" style="edgeStyle=orthogonalEdgeStyle;rounded=0;orthogonalLoop=1;jettySize=auto;html=1;" edge="1" parent="1" source="E54G0jagETd4hcooSOa8-1" target="E54G0jagETd4hcooSOa8-10">
          <mxGeometry relative="1" as="geometry" />
        </mxCell>
        <mxCell id="E54G0jagETd4hcooSOa8-1" value="Master" style="text;html=1;strokeColor=none;fillColor=none;align=center;verticalAlign=middle;whiteSpace=wrap;rounded=0;" vertex="1" parent="1">
          <mxGeometry x="40" y="70" width="40" height="20" as="geometry" />
        </mxCell>
        <mxCell id="E54G0jagETd4hcooSOa8-2" value="Feature" style="text;html=1;strokeColor=none;fillColor=none;align=center;verticalAlign=middle;whiteSpace=wrap;rounded=0;" vertex="1" parent="1">
          <mxGeometry x="40" y="230" width="40" height="20" as="geometry" />
        </mxCell>
        <mxCell id="E54G0jagETd4hcooSOa8-3" value="Feature 2" style="text;html=1;strokeColor=none;fillColor=none;align=center;verticalAlign=middle;whiteSpace=wrap;rounded=0;" vertex="1" parent="1">
          <mxGeometry x="36" y="270" width="60" height="20" as="geometry" />
        </mxCell>
        <mxCell id="E54G0jagETd4hcooSOa8-5" value="Release" style="text;html=1;strokeColor=none;fillColor=none;align=center;verticalAlign=middle;whiteSpace=wrap;rounded=0;" vertex="1" parent="1">
          <mxGeometry x="44" y="150" width="40" height="20" as="geometry" />
        </mxCell>
        <mxCell id="E54G0jagETd4hcooSOa8-7" value="Weekly UI/UX" style="text;html=1;strokeColor=none;fillColor=none;align=center;verticalAlign=middle;whiteSpace=wrap;rounded=0;" vertex="1" parent="1">
          <mxGeometry x="40" y="190" width="80" height="20" as="geometry" />
        </mxCell>
        <mxCell id="E54G0jagETd4hcooSOa8-8" value="HotFix" style="text;html=1;strokeColor=none;fillColor=none;align=center;verticalAlign=middle;whiteSpace=wrap;rounded=0;" vertex="1" parent="1">
          <mxGeometry x="40" y="110" width="40" height="20" as="geometry" />
        </mxCell>
        <mxCell id="E54G0jagETd4hcooSOa8-9" value="" style="endArrow=none;html=1;" edge="1" parent="1" source="E54G0jagETd4hcooSOa8-73">
          <mxGeometry width="50" height="50" relative="1" as="geometry">
            <mxPoint x="120" y="80" as="sourcePoint" />
            <mxPoint x="760" y="80" as="targetPoint" />
          </mxGeometry>
        </mxCell>
        <mxCell id="E54G0jagETd4hcooSOa8-11" value="" style="endArrow=none;html=1;" edge="1" parent="1" target="E54G0jagETd4hcooSOa8-10">
          <mxGeometry width="50" height="50" relative="1" as="geometry">
            <mxPoint x="120" y="80" as="sourcePoint" />
            <mxPoint x="760" y="80" as="targetPoint" />
          </mxGeometry>
        </mxCell>
        <mxCell id="E54G0jagETd4hcooSOa8-13" value="" style="endArrow=classic;html=1;exitX=0.5;exitY=1;exitDx=0;exitDy=0;entryX=0;entryY=0;entryDx=0;entryDy=0;" edge="1" parent="1" source="E54G0jagETd4hcooSOa8-10">
          <mxGeometry width="50" height="50" relative="1" as="geometry">
            <mxPoint x="390" y="290" as="sourcePoint" />
            <mxPoint x="153.66116523516803" y="191.16116523516803" as="targetPoint" />
          </mxGeometry>
        </mxCell>
        <mxCell id="E54G0jagETd4hcooSOa8-14" value="" style="endArrow=none;html=1;" edge="1" parent="1" source="E54G0jagETd4hcooSOa8-68">
          <mxGeometry width="50" height="50" relative="1" as="geometry">
            <mxPoint x="120" y="160" as="sourcePoint" />
            <mxPoint x="760" y="160" as="targetPoint" />
          </mxGeometry>
        </mxCell>
        <mxCell id="E54G0jagETd4hcooSOa8-15" value="" style="endArrow=none;html=1;" edge="1" parent="1" source="E54G0jagETd4hcooSOa8-27">
          <mxGeometry width="50" height="50" relative="1" as="geometry">
            <mxPoint x="120" y="239.5" as="sourcePoint" />
            <mxPoint x="760" y="239.5" as="targetPoint" />
          </mxGeometry>
        </mxCell>
        <mxCell id="E54G0jagETd4hcooSOa8-16" value="" style="endArrow=none;html=1;" edge="1" parent="1" source="E54G0jagETd4hcooSOa8-58">
          <mxGeometry width="50" height="50" relative="1" as="geometry">
            <mxPoint x="120" y="279.5" as="sourcePoint" />
            <mxPoint x="760" y="279.5" as="targetPoint" />
          </mxGeometry>
        </mxCell>
        <mxCell id="E54G0jagETd4hcooSOa8-17" value="" style="endArrow=none;html=1;" edge="1" parent="1" source="E54G0jagETd4hcooSOa8-65">
          <mxGeometry width="50" height="50" relative="1" as="geometry">
            <mxPoint x="120" y="199.5" as="sourcePoint" />
            <mxPoint x="760" y="199.5" as="targetPoint" />
          </mxGeometry>
        </mxCell>
        <mxCell id="E54G0jagETd4hcooSOa8-18" value="" style="ellipse;whiteSpace=wrap;html=1;fillColor=#d5e8d4;strokeColor=#82b366;" vertex="1" parent="1">
          <mxGeometry x="150" y="187.5" width="25" height="25" as="geometry" />
        </mxCell>
        <mxCell id="E54G0jagETd4hcooSOa8-19" value="" style="endArrow=none;html=1;" edge="1" parent="1" target="E54G0jagETd4hcooSOa8-18">
          <mxGeometry width="50" height="50" relative="1" as="geometry">
            <mxPoint x="120" y="199.5" as="sourcePoint" />
            <mxPoint x="760" y="199.5" as="targetPoint" />
          </mxGeometry>
        </mxCell>
        <mxCell id="E54G0jagETd4hcooSOa8-20" value="" style="ellipse;whiteSpace=wrap;html=1;fillColor=#f8cecc;strokeColor=#b85450;" vertex="1" parent="1">
          <mxGeometry x="150" y="227.5" width="25" height="25" as="geometry" />
        </mxCell>
        <mxCell id="E54G0jagETd4hcooSOa8-21" value="" style="endArrow=none;html=1;" edge="1" parent="1" target="E54G0jagETd4hcooSOa8-20">
          <mxGeometry width="50" height="50" relative="1" as="geometry">
            <mxPoint x="120" y="239.5" as="sourcePoint" />
            <mxPoint x="760" y="239.5" as="targetPoint" />
          </mxGeometry>
        </mxCell>
        <mxCell id="E54G0jagETd4hcooSOa8-22" value="" style="ellipse;whiteSpace=wrap;html=1;fillColor=#f8cecc;strokeColor=#b85450;" vertex="1" parent="1">
          <mxGeometry x="150" y="267.5" width="25" height="25" as="geometry" />
        </mxCell>
        <mxCell id="E54G0jagETd4hcooSOa8-23" value="" style="endArrow=none;html=1;" edge="1" parent="1" target="E54G0jagETd4hcooSOa8-22">
          <mxGeometry width="50" height="50" relative="1" as="geometry">
            <mxPoint x="120" y="279.5" as="sourcePoint" />
            <mxPoint x="760" y="279.5" as="targetPoint" />
          </mxGeometry>
        </mxCell>
        <mxCell id="E54G0jagETd4hcooSOa8-24" value="" style="endArrow=classic;html=1;exitX=0.5;exitY=1;exitDx=0;exitDy=0;entryX=0;entryY=0.5;entryDx=0;entryDy=0;" edge="1" parent="1" source="E54G0jagETd4hcooSOa8-10" target="E54G0jagETd4hcooSOa8-20">
          <mxGeometry width="50" height="50" relative="1" as="geometry">
            <mxPoint x="390" y="290" as="sourcePoint" />
            <mxPoint x="440" y="240" as="targetPoint" />
          </mxGeometry>
        </mxCell>
        <mxCell id="E54G0jagETd4hcooSOa8-26" value="" style="endArrow=classic;html=1;entryX=0;entryY=0;entryDx=0;entryDy=0;" edge="1" parent="1" target="E54G0jagETd4hcooSOa8-22">
          <mxGeometry width="50" height="50" relative="1" as="geometry">
            <mxPoint x="110" y="90" as="sourcePoint" />
            <mxPoint x="160" y="250" as="targetPoint" />
          </mxGeometry>
        </mxCell>
        <mxCell id="E54G0jagETd4hcooSOa8-27" value="" style="ellipse;whiteSpace=wrap;html=1;fillColor=#f8cecc;strokeColor=#b85450;" vertex="1" parent="1">
          <mxGeometry x="210" y="230" width="25" height="25" as="geometry" />
        </mxCell>
        <mxCell id="E54G0jagETd4hcooSOa8-28" value="" style="endArrow=none;html=1;" edge="1" parent="1" source="E54G0jagETd4hcooSOa8-20" target="E54G0jagETd4hcooSOa8-27">
          <mxGeometry width="50" height="50" relative="1" as="geometry">
            <mxPoint x="175" y="240" as="sourcePoint" />
            <mxPoint x="760" y="239.5" as="targetPoint" />
          </mxGeometry>
        </mxCell>
        <mxCell id="E54G0jagETd4hcooSOa8-29" value="" style="ellipse;whiteSpace=wrap;html=1;fillColor=#f8cecc;strokeColor=#b85450;" vertex="1" parent="1">
          <mxGeometry x="270" y="227.5" width="25" height="25" as="geometry" />
        </mxCell>
        <mxCell id="E54G0jagETd4hcooSOa8-31" value="" style="endArrow=classic;html=1;entryX=0;entryY=0.5;entryDx=0;entryDy=0;" edge="1" parent="1" target="E54G0jagETd4hcooSOa8-27">
          <mxGeometry width="50" height="50" relative="1" as="geometry">
            <mxPoint x="180" y="240" as="sourcePoint" />
            <mxPoint x="440" y="240" as="targetPoint" />
          </mxGeometry>
        </mxCell>
        <mxCell id="E54G0jagETd4hcooSOa8-32" value="" style="endArrow=classic;html=1;exitX=1;exitY=0.5;exitDx=0;exitDy=0;" edge="1" parent="1" source="E54G0jagETd4hcooSOa8-27">
          <mxGeometry width="50" height="50" relative="1" as="geometry">
            <mxPoint x="190" y="250" as="sourcePoint" />
            <mxPoint x="270" y="240" as="targetPoint" />
          </mxGeometry>
        </mxCell>
        <mxCell id="E54G0jagETd4hcooSOa8-33" value="" style="endArrow=none;html=1;" edge="1" parent="1" source="E54G0jagETd4hcooSOa8-83">
          <mxGeometry width="50" height="50" relative="1" as="geometry">
            <mxPoint x="120" y="119.5" as="sourcePoint" />
            <mxPoint x="755" y="119.5" as="targetPoint" />
          </mxGeometry>
        </mxCell>
        <mxCell id="E54G0jagETd4hcooSOa8-34" value="" style="ellipse;whiteSpace=wrap;html=1;fillColor=#ffe6cc;strokeColor=#d79b00;" vertex="1" parent="1">
          <mxGeometry x="310" y="147.5" width="25" height="25" as="geometry" />
        </mxCell>
        <mxCell id="E54G0jagETd4hcooSOa8-35" value="" style="endArrow=none;html=1;" edge="1" parent="1" target="E54G0jagETd4hcooSOa8-34">
          <mxGeometry width="50" height="50" relative="1" as="geometry">
            <mxPoint x="120" y="160" as="sourcePoint" />
            <mxPoint x="760" y="160" as="targetPoint" />
          </mxGeometry>
        </mxCell>
        <mxCell id="E54G0jagETd4hcooSOa8-36" value="" style="endArrow=classic;html=1;exitX=0.5;exitY=0;exitDx=0;exitDy=0;entryX=0;entryY=1;entryDx=0;entryDy=0;" edge="1" parent="1" source="E54G0jagETd4hcooSOa8-29" target="E54G0jagETd4hcooSOa8-34">
          <mxGeometry width="50" height="50" relative="1" as="geometry">
            <mxPoint x="390" y="290" as="sourcePoint" />
            <mxPoint x="440" y="240" as="targetPoint" />
          </mxGeometry>
        </mxCell>
        <mxCell id="E54G0jagETd4hcooSOa8-37" value="" style="ellipse;whiteSpace=wrap;html=1;fillColor=#d5e8d4;strokeColor=#82b366;" vertex="1" parent="1">
          <mxGeometry x="260" y="187.5" width="25" height="25" as="geometry" />
        </mxCell>
        <mxCell id="E54G0jagETd4hcooSOa8-38" value="" style="endArrow=none;html=1;" edge="1" parent="1" source="E54G0jagETd4hcooSOa8-18" target="E54G0jagETd4hcooSOa8-37">
          <mxGeometry width="50" height="50" relative="1" as="geometry">
            <mxPoint x="175" y="200" as="sourcePoint" />
            <mxPoint x="760" y="199.5" as="targetPoint" />
          </mxGeometry>
        </mxCell>
        <mxCell id="E54G0jagETd4hcooSOa8-39" value="" style="endArrow=classic;html=1;exitX=1;exitY=0.5;exitDx=0;exitDy=0;entryX=0;entryY=0.5;entryDx=0;entryDy=0;" edge="1" parent="1" source="E54G0jagETd4hcooSOa8-18" target="E54G0jagETd4hcooSOa8-37">
          <mxGeometry width="50" height="50" relative="1" as="geometry">
            <mxPoint x="390" y="290" as="sourcePoint" />
            <mxPoint x="440" y="240" as="targetPoint" />
          </mxGeometry>
        </mxCell>
        <mxCell id="E54G0jagETd4hcooSOa8-40" value="" style="endArrow=classic;html=1;exitX=0.5;exitY=0;exitDx=0;exitDy=0;entryX=0;entryY=0.5;entryDx=0;entryDy=0;" edge="1" parent="1" source="E54G0jagETd4hcooSOa8-37" target="E54G0jagETd4hcooSOa8-34">
          <mxGeometry width="50" height="50" relative="1" as="geometry">
            <mxPoint x="390" y="290" as="sourcePoint" />
            <mxPoint x="440" y="240" as="targetPoint" />
          </mxGeometry>
        </mxCell>
        <mxCell id="E54G0jagETd4hcooSOa8-42" value="" style="endArrow=classic;html=1;exitX=1;exitY=0.5;exitDx=0;exitDy=0;entryX=0;entryY=0.5;entryDx=0;entryDy=0;" edge="1" parent="1" source="E54G0jagETd4hcooSOa8-34" target="E54G0jagETd4hcooSOa8-41">
          <mxGeometry width="50" height="50" relative="1" as="geometry">
            <mxPoint x="390" y="290" as="sourcePoint" />
            <mxPoint x="440" y="240" as="targetPoint" />
          </mxGeometry>
        </mxCell>
        <mxCell id="E54G0jagETd4hcooSOa8-44" value="" style="ellipse;whiteSpace=wrap;html=1;fillColor=#dae8fc;strokeColor=#6c8ebf;" vertex="1" parent="1">
          <mxGeometry x="430" y="67.5" width="25" height="25" as="geometry" />
        </mxCell>
        <mxCell id="E54G0jagETd4hcooSOa8-45" value="" style="endArrow=none;html=1;" edge="1" parent="1" source="E54G0jagETd4hcooSOa8-81" target="E54G0jagETd4hcooSOa8-44">
          <mxGeometry width="50" height="50" relative="1" as="geometry">
            <mxPoint x="125" y="80" as="sourcePoint" />
            <mxPoint x="760" y="80" as="targetPoint" />
          </mxGeometry>
        </mxCell>
        <mxCell id="E54G0jagETd4hcooSOa8-46" value="" style="endArrow=classic;html=1;exitX=0.5;exitY=0;exitDx=0;exitDy=0;entryX=0;entryY=1;entryDx=0;entryDy=0;" edge="1" parent="1" source="E54G0jagETd4hcooSOa8-41" target="E54G0jagETd4hcooSOa8-44">
          <mxGeometry width="50" height="50" relative="1" as="geometry">
            <mxPoint x="390" y="290" as="sourcePoint" />
            <mxPoint x="440" y="240" as="targetPoint" />
          </mxGeometry>
        </mxCell>
        <mxCell id="E54G0jagETd4hcooSOa8-49" value="" style="endArrow=classic;html=1;exitX=1;exitY=1;exitDx=0;exitDy=0;entryX=0;entryY=0.5;entryDx=0;entryDy=0;" edge="1" parent="1" source="E54G0jagETd4hcooSOa8-10" target="E54G0jagETd4hcooSOa8-47">
          <mxGeometry width="50" height="50" relative="1" as="geometry">
            <mxPoint x="390" y="290" as="sourcePoint" />
            <mxPoint x="440" y="240" as="targetPoint" />
          </mxGeometry>
        </mxCell>
        <mxCell id="E54G0jagETd4hcooSOa8-50" value="" style="endArrow=classic;html=1;exitX=1;exitY=0.5;exitDx=0;exitDy=0;entryX=0;entryY=1;entryDx=0;entryDy=0;" edge="1" parent="1" source="E54G0jagETd4hcooSOa8-47" target="E54G0jagETd4hcooSOa8-48">
          <mxGeometry width="50" height="50" relative="1" as="geometry">
            <mxPoint x="131.33883476483197" y="98.83883476483197" as="sourcePoint" />
            <mxPoint x="200" y="132.5" as="targetPoint" />
          </mxGeometry>
        </mxCell>
        <mxCell id="E54G0jagETd4hcooSOa8-47" value="" style="ellipse;whiteSpace=wrap;html=1;fillColor=#e1d5e7;strokeColor=#9673a6;" vertex="1" parent="1">
          <mxGeometry x="150" y="110" width="25" height="25" as="geometry" />
        </mxCell>
        <mxCell id="E54G0jagETd4hcooSOa8-51" value="" style="endArrow=none;html=1;" edge="1" parent="1" target="E54G0jagETd4hcooSOa8-47">
          <mxGeometry width="50" height="50" relative="1" as="geometry">
            <mxPoint x="120" y="119.5" as="sourcePoint" />
            <mxPoint x="755" y="119.5" as="targetPoint" />
          </mxGeometry>
        </mxCell>
        <mxCell id="E54G0jagETd4hcooSOa8-48" value="" style="ellipse;whiteSpace=wrap;html=1;fillColor=#dae8fc;strokeColor=#6c8ebf;" vertex="1" parent="1">
          <mxGeometry x="200" y="65" width="25" height="25" as="geometry" />
        </mxCell>
        <mxCell id="E54G0jagETd4hcooSOa8-52" value="" style="endArrow=none;html=1;" edge="1" parent="1" source="E54G0jagETd4hcooSOa8-10" target="E54G0jagETd4hcooSOa8-48">
          <mxGeometry width="50" height="50" relative="1" as="geometry">
            <mxPoint x="125" y="80" as="sourcePoint" />
            <mxPoint x="430" y="80" as="targetPoint" />
          </mxGeometry>
        </mxCell>
        <mxCell id="E54G0jagETd4hcooSOa8-53" value="" style="endArrow=classic;html=1;exitX=0.5;exitY=1;exitDx=0;exitDy=0;entryX=0;entryY=0;entryDx=0;entryDy=0;" edge="1" parent="1" source="E54G0jagETd4hcooSOa8-48" target="E54G0jagETd4hcooSOa8-37">
          <mxGeometry width="50" height="50" relative="1" as="geometry">
            <mxPoint x="390" y="290" as="sourcePoint" />
            <mxPoint x="440" y="240" as="targetPoint" />
          </mxGeometry>
        </mxCell>
        <mxCell id="E54G0jagETd4hcooSOa8-54" value="" style="endArrow=classic;html=1;exitX=0.5;exitY=1;exitDx=0;exitDy=0;entryX=0;entryY=0;entryDx=0;entryDy=0;" edge="1" parent="1" source="E54G0jagETd4hcooSOa8-48" target="E54G0jagETd4hcooSOa8-29">
          <mxGeometry width="50" height="50" relative="1" as="geometry">
            <mxPoint x="222.5" y="100" as="sourcePoint" />
            <mxPoint x="273.661165235168" y="201.16116523516803" as="targetPoint" />
          </mxGeometry>
        </mxCell>
        <mxCell id="E54G0jagETd4hcooSOa8-56" value="" style="ellipse;whiteSpace=wrap;html=1;fillColor=#f8cecc;strokeColor=#b85450;" vertex="1" parent="1">
          <mxGeometry x="500" y="267.5" width="25" height="25" as="geometry" />
        </mxCell>
        <mxCell id="E54G0jagETd4hcooSOa8-57" value="" style="endArrow=none;html=1;jumpSize=0;" edge="1" parent="1" source="E54G0jagETd4hcooSOa8-22" target="E54G0jagETd4hcooSOa8-56">
          <mxGeometry width="50" height="50" relative="1" as="geometry">
            <mxPoint x="175" y="280" as="sourcePoint" />
            <mxPoint x="760" y="279.5" as="targetPoint" />
          </mxGeometry>
        </mxCell>
        <mxCell id="E54G0jagETd4hcooSOa8-59" value="" style="endArrow=none;html=1;" edge="1" parent="1" source="E54G0jagETd4hcooSOa8-56" target="E54G0jagETd4hcooSOa8-58">
          <mxGeometry width="50" height="50" relative="1" as="geometry">
            <mxPoint x="525" y="280" as="sourcePoint" />
            <mxPoint x="760" y="279.5" as="targetPoint" />
          </mxGeometry>
        </mxCell>
        <mxCell id="E54G0jagETd4hcooSOa8-60" value="" style="endArrow=classic;html=1;exitX=1;exitY=0.5;exitDx=0;exitDy=0;" edge="1" parent="1" source="E54G0jagETd4hcooSOa8-22">
          <mxGeometry width="50" height="50" relative="1" as="geometry">
            <mxPoint x="390" y="290" as="sourcePoint" />
            <mxPoint x="360" y="280" as="targetPoint" />
          </mxGeometry>
        </mxCell>
        <mxCell id="E54G0jagETd4hcooSOa8-62" value="" style="endArrow=classic;html=1;entryX=0;entryY=0.5;entryDx=0;entryDy=0;" edge="1" parent="1" target="E54G0jagETd4hcooSOa8-56">
          <mxGeometry width="50" height="50" relative="1" as="geometry">
            <mxPoint x="380" y="280" as="sourcePoint" />
            <mxPoint x="323.661165235168" y="178.83883476483197" as="targetPoint" />
          </mxGeometry>
        </mxCell>
        <mxCell id="E54G0jagETd4hcooSOa8-64" value="" style="endArrow=classic;html=1;exitX=0.5;exitY=1;exitDx=0;exitDy=0;entryX=0;entryY=0;entryDx=0;entryDy=0;" edge="1" parent="1" source="E54G0jagETd4hcooSOa8-44" target="E54G0jagETd4hcooSOa8-56">
          <mxGeometry width="50" height="50" relative="1" as="geometry">
            <mxPoint x="390" y="290" as="sourcePoint" />
            <mxPoint x="440" y="240" as="targetPoint" />
          </mxGeometry>
        </mxCell>
        <mxCell id="E54G0jagETd4hcooSOa8-65" value="" style="ellipse;whiteSpace=wrap;html=1;fillColor=#d5e8d4;strokeColor=#82b366;" vertex="1" parent="1">
          <mxGeometry x="500" y="185" width="25" height="25" as="geometry" />
        </mxCell>
        <mxCell id="E54G0jagETd4hcooSOa8-66" value="" style="endArrow=none;html=1;" edge="1" parent="1" source="E54G0jagETd4hcooSOa8-76" target="E54G0jagETd4hcooSOa8-65">
          <mxGeometry width="50" height="50" relative="1" as="geometry">
            <mxPoint x="285" y="200" as="sourcePoint" />
            <mxPoint x="760" y="199.5" as="targetPoint" />
          </mxGeometry>
        </mxCell>
        <mxCell id="E54G0jagETd4hcooSOa8-67" value="" style="endArrow=classic;html=1;entryX=0;entryY=0;entryDx=0;entryDy=0;exitX=0.5;exitY=1;exitDx=0;exitDy=0;" edge="1" parent="1" source="E54G0jagETd4hcooSOa8-44" target="E54G0jagETd4hcooSOa8-65">
          <mxGeometry width="50" height="50" relative="1" as="geometry">
            <mxPoint x="390" y="290" as="sourcePoint" />
            <mxPoint x="440" y="240" as="targetPoint" />
          </mxGeometry>
        </mxCell>
        <mxCell id="E54G0jagETd4hcooSOa8-68" value="" style="ellipse;whiteSpace=wrap;html=1;fillColor=#ffe6cc;strokeColor=#d79b00;" vertex="1" parent="1">
          <mxGeometry x="605" y="147.5" width="25" height="25" as="geometry" />
        </mxCell>
        <mxCell id="E54G0jagETd4hcooSOa8-69" value="" style="endArrow=none;html=1;" edge="1" parent="1" source="E54G0jagETd4hcooSOa8-34" target="E54G0jagETd4hcooSOa8-68">
          <mxGeometry width="50" height="50" relative="1" as="geometry">
            <mxPoint x="335" y="160" as="sourcePoint" />
            <mxPoint x="760" y="160" as="targetPoint" />
          </mxGeometry>
        </mxCell>
        <mxCell id="E54G0jagETd4hcooSOa8-58" value="" style="ellipse;whiteSpace=wrap;html=1;fillColor=#f8cecc;strokeColor=#b85450;" vertex="1" parent="1">
          <mxGeometry x="580" y="265" width="25" height="25" as="geometry" />
        </mxCell>
        <mxCell id="E54G0jagETd4hcooSOa8-70" value="" style="endArrow=classic;html=1;exitX=1;exitY=0.5;exitDx=0;exitDy=0;" edge="1" parent="1" source="E54G0jagETd4hcooSOa8-56" target="E54G0jagETd4hcooSOa8-58">
          <mxGeometry width="50" height="50" relative="1" as="geometry">
            <mxPoint x="525" y="280" as="sourcePoint" />
            <mxPoint x="620" y="280" as="targetPoint" />
          </mxGeometry>
        </mxCell>
        <mxCell id="E54G0jagETd4hcooSOa8-71" value="" style="endArrow=classic;html=1;entryX=0;entryY=1;entryDx=0;entryDy=0;exitX=1;exitY=0.5;exitDx=0;exitDy=0;" edge="1" parent="1" source="E54G0jagETd4hcooSOa8-65" target="E54G0jagETd4hcooSOa8-68">
          <mxGeometry width="50" height="50" relative="1" as="geometry">
            <mxPoint x="390" y="290" as="sourcePoint" />
            <mxPoint x="440" y="240" as="targetPoint" />
          </mxGeometry>
        </mxCell>
        <mxCell id="E54G0jagETd4hcooSOa8-72" value="" style="endArrow=classic;html=1;entryX=0.5;entryY=1;entryDx=0;entryDy=0;exitX=0.5;exitY=0;exitDx=0;exitDy=0;" edge="1" parent="1" source="E54G0jagETd4hcooSOa8-58" target="E54G0jagETd4hcooSOa8-68">
          <mxGeometry width="50" height="50" relative="1" as="geometry">
            <mxPoint x="535" y="207.5" as="sourcePoint" />
            <mxPoint x="608.661165235168" y="178.83883476483197" as="targetPoint" />
          </mxGeometry>
        </mxCell>
        <mxCell id="E54G0jagETd4hcooSOa8-73" value="" style="ellipse;whiteSpace=wrap;html=1;fillColor=#dae8fc;strokeColor=#6c8ebf;" vertex="1" parent="1">
          <mxGeometry x="650" y="65" width="25" height="25" as="geometry" />
        </mxCell>
        <mxCell id="E54G0jagETd4hcooSOa8-74" value="" style="endArrow=none;html=1;" edge="1" parent="1" source="E54G0jagETd4hcooSOa8-44" target="E54G0jagETd4hcooSOa8-73">
          <mxGeometry width="50" height="50" relative="1" as="geometry">
            <mxPoint x="455" y="80" as="sourcePoint" />
            <mxPoint x="760" y="80" as="targetPoint" />
          </mxGeometry>
        </mxCell>
        <mxCell id="E54G0jagETd4hcooSOa8-75" value="" style="endArrow=classic;html=1;entryX=0.5;entryY=1;entryDx=0;entryDy=0;exitX=1;exitY=0;exitDx=0;exitDy=0;" edge="1" parent="1" source="E54G0jagETd4hcooSOa8-68" target="E54G0jagETd4hcooSOa8-73">
          <mxGeometry width="50" height="50" relative="1" as="geometry">
            <mxPoint x="390" y="290" as="sourcePoint" />
            <mxPoint x="440" y="240" as="targetPoint" />
          </mxGeometry>
        </mxCell>
        <mxCell id="E54G0jagETd4hcooSOa8-55" value="" style="ellipse;whiteSpace=wrap;html=1;fillColor=#f8cecc;strokeColor=#b85450;" vertex="1" parent="1">
          <mxGeometry x="355" y="265" width="25" height="25" as="geometry" />
        </mxCell>
        <mxCell id="E54G0jagETd4hcooSOa8-10" value="" style="ellipse;whiteSpace=wrap;html=1;fillColor=#dae8fc;strokeColor=#6c8ebf;" vertex="1" parent="1">
          <mxGeometry x="100" y="67.5" width="25" height="25" as="geometry" />
        </mxCell>
        <mxCell id="E54G0jagETd4hcooSOa8-41" value="" style="ellipse;whiteSpace=wrap;html=1;fillColor=#ffe6cc;strokeColor=#d79b00;" vertex="1" parent="1">
          <mxGeometry x="380" y="147.5" width="25" height="25" as="geometry" />
        </mxCell>
        <mxCell id="E54G0jagETd4hcooSOa8-76" value="" style="ellipse;whiteSpace=wrap;html=1;fillColor=#d5e8d4;strokeColor=#82b366;" vertex="1" parent="1">
          <mxGeometry x="370" y="185" width="25" height="25" as="geometry" />
        </mxCell>
        <mxCell id="E54G0jagETd4hcooSOa8-77" value="" style="endArrow=none;html=1;" edge="1" parent="1" source="E54G0jagETd4hcooSOa8-37" target="E54G0jagETd4hcooSOa8-76">
          <mxGeometry width="50" height="50" relative="1" as="geometry">
            <mxPoint x="284.999514864556" y="199.88987211573078" as="sourcePoint" />
            <mxPoint x="500.0004340051762" y="197.60416304995692" as="targetPoint" />
          </mxGeometry>
        </mxCell>
        <mxCell id="E54G0jagETd4hcooSOa8-78" value="" style="endArrow=classic;html=1;exitX=1;exitY=0.5;exitDx=0;exitDy=0;entryX=0;entryY=0.5;entryDx=0;entryDy=0;" edge="1" parent="1" source="E54G0jagETd4hcooSOa8-37" target="E54G0jagETd4hcooSOa8-76">
          <mxGeometry width="50" height="50" relative="1" as="geometry">
            <mxPoint x="390" y="190" as="sourcePoint" />
            <mxPoint x="440" y="140" as="targetPoint" />
          </mxGeometry>
        </mxCell>
        <mxCell id="E54G0jagETd4hcooSOa8-80" value="" style="endArrow=classic;html=1;exitX=1;exitY=0.5;exitDx=0;exitDy=0;entryX=0;entryY=0.5;entryDx=0;entryDy=0;" edge="1" parent="1" source="E54G0jagETd4hcooSOa8-76" target="E54G0jagETd4hcooSOa8-65">
          <mxGeometry width="50" height="50" relative="1" as="geometry">
            <mxPoint x="390" y="190" as="sourcePoint" />
            <mxPoint x="440" y="140" as="targetPoint" />
          </mxGeometry>
        </mxCell>
        <mxCell id="E54G0jagETd4hcooSOa8-81" value="" style="ellipse;whiteSpace=wrap;html=1;fillColor=#dae8fc;strokeColor=#6c8ebf;" vertex="1" parent="1">
          <mxGeometry x="335" y="65" width="25" height="25" as="geometry" />
        </mxCell>
        <mxCell id="E54G0jagETd4hcooSOa8-82" value="" style="endArrow=none;html=1;" edge="1" parent="1" source="E54G0jagETd4hcooSOa8-48" target="E54G0jagETd4hcooSOa8-81">
          <mxGeometry width="50" height="50" relative="1" as="geometry">
            <mxPoint x="224.999469124263" y="77.6152024804079" as="sourcePoint" />
            <mxPoint x="430.0004725629849" y="79.89130845706939" as="targetPoint" />
          </mxGeometry>
        </mxCell>
        <mxCell id="E54G0jagETd4hcooSOa8-83" value="" style="ellipse;whiteSpace=wrap;html=1;fillColor=#e1d5e7;strokeColor=#9673a6;" vertex="1" parent="1">
          <mxGeometry x="280" y="107.5" width="25" height="25" as="geometry" />
        </mxCell>
        <mxCell id="E54G0jagETd4hcooSOa8-84" value="" style="endArrow=none;html=1;" edge="1" parent="1" source="E54G0jagETd4hcooSOa8-47" target="E54G0jagETd4hcooSOa8-83">
          <mxGeometry width="50" height="50" relative="1" as="geometry">
            <mxPoint x="174.9998395015782" y="122.43665621874209" as="sourcePoint" />
            <mxPoint x="755" y="119.5" as="targetPoint" />
          </mxGeometry>
        </mxCell>
        <mxCell id="E54G0jagETd4hcooSOa8-85" value="" style="endArrow=classic;html=1;exitX=1;exitY=1;exitDx=0;exitDy=0;entryX=0;entryY=0.5;entryDx=0;entryDy=0;" edge="1" parent="1" source="E54G0jagETd4hcooSOa8-48" target="E54G0jagETd4hcooSOa8-83">
          <mxGeometry width="50" height="50" relative="1" as="geometry">
            <mxPoint x="360" y="190" as="sourcePoint" />
            <mxPoint x="410" y="140" as="targetPoint" />
          </mxGeometry>
        </mxCell>
        <mxCell id="E54G0jagETd4hcooSOa8-86" value="" style="endArrow=classic;html=1;exitX=1;exitY=0.5;exitDx=0;exitDy=0;entryX=0;entryY=1;entryDx=0;entryDy=0;" edge="1" parent="1" source="E54G0jagETd4hcooSOa8-83" target="E54G0jagETd4hcooSOa8-81">
          <mxGeometry width="50" height="50" relative="1" as="geometry">
            <mxPoint x="360" y="190" as="sourcePoint" />
            <mxPoint x="410" y="140" as="targetPoint" />
          </mxGeometry>
        </mxCell>
        <mxCell id="E54G0jagETd4hcooSOa8-87" value="" style="endArrow=classic;html=1;exitX=0.5;exitY=1;exitDx=0;exitDy=0;entryX=0;entryY=0;entryDx=0;entryDy=0;" edge="1" parent="1" source="E54G0jagETd4hcooSOa8-81" target="E54G0jagETd4hcooSOa8-41">
          <mxGeometry width="50" height="50" relative="1" as="geometry">
            <mxPoint x="360" y="190" as="sourcePoint" />
            <mxPoint x="410" y="140" as="targetPoint" />
          </mxGeometry>
        </mxCell>
        <mxCell id="E54G0jagETd4hcooSOa8-88" value="Master" style="text;html=1;strokeColor=none;fillColor=none;align=center;verticalAlign=middle;whiteSpace=wrap;rounded=0;" vertex="1" parent="1">
          <mxGeometry x="40" y="390" width="40" height="20" as="geometry" />
        </mxCell>
        <mxCell id="E54G0jagETd4hcooSOa8-89" value="Feature" style="text;html=1;strokeColor=none;fillColor=none;align=center;verticalAlign=middle;whiteSpace=wrap;rounded=0;" vertex="1" parent="1">
          <mxGeometry x="40" y="550" width="40" height="20" as="geometry" />
        </mxCell>
        <mxCell id="E54G0jagETd4hcooSOa8-90" value="Feature 2" style="text;html=1;strokeColor=none;fillColor=none;align=center;verticalAlign=middle;whiteSpace=wrap;rounded=0;" vertex="1" parent="1">
          <mxGeometry x="36" y="590" width="60" height="20" as="geometry" />
        </mxCell>
        <mxCell id="E54G0jagETd4hcooSOa8-91" value="Release" style="text;html=1;strokeColor=none;fillColor=none;align=center;verticalAlign=middle;whiteSpace=wrap;rounded=0;" vertex="1" parent="1">
          <mxGeometry x="44" y="470" width="40" height="20" as="geometry" />
        </mxCell>
        <mxCell id="E54G0jagETd4hcooSOa8-92" value="Development" style="text;html=1;strokeColor=none;fillColor=none;align=center;verticalAlign=middle;whiteSpace=wrap;rounded=0;" vertex="1" parent="1">
          <mxGeometry x="36" y="510" width="80" height="20" as="geometry" />
        </mxCell>
        <mxCell id="E54G0jagETd4hcooSOa8-93" value="HotFix" style="text;html=1;strokeColor=none;fillColor=none;align=center;verticalAlign=middle;whiteSpace=wrap;rounded=0;" vertex="1" parent="1">
          <mxGeometry x="40" y="430" width="40" height="20" as="geometry" />
        </mxCell>
        <mxCell id="E54G0jagETd4hcooSOa8-94" value="" style="endArrow=none;html=1;" edge="1" parent="1" source="E54G0jagETd4hcooSOa8-169">
          <mxGeometry width="50" height="50" relative="1" as="geometry">
            <mxPoint x="120" y="400" as="sourcePoint" />
            <mxPoint x="760" y="400" as="targetPoint" />
          </mxGeometry>
        </mxCell>
        <mxCell id="E54G0jagETd4hcooSOa8-95" value="" style="endArrow=none;html=1;" edge="1" parent="1">
          <mxGeometry width="50" height="50" relative="1" as="geometry">
            <mxPoint x="120" y="439.5" as="sourcePoint" />
            <mxPoint x="760" y="439.5" as="targetPoint" />
          </mxGeometry>
        </mxCell>
        <mxCell id="E54G0jagETd4hcooSOa8-96" value="" style="endArrow=none;html=1;" edge="1" parent="1" source="E54G0jagETd4hcooSOa8-137">
          <mxGeometry width="50" height="50" relative="1" as="geometry">
            <mxPoint x="120" y="479.5" as="sourcePoint" />
            <mxPoint x="760" y="479.5" as="targetPoint" />
          </mxGeometry>
        </mxCell>
        <mxCell id="E54G0jagETd4hcooSOa8-97" value="" style="endArrow=none;html=1;" edge="1" parent="1" source="E54G0jagETd4hcooSOa8-162">
          <mxGeometry width="50" height="50" relative="1" as="geometry">
            <mxPoint x="120" y="519.5" as="sourcePoint" />
            <mxPoint x="760" y="519.5" as="targetPoint" />
          </mxGeometry>
        </mxCell>
        <mxCell id="E54G0jagETd4hcooSOa8-98" value="" style="endArrow=none;html=1;" edge="1" parent="1" source="E54G0jagETd4hcooSOa8-120">
          <mxGeometry width="50" height="50" relative="1" as="geometry">
            <mxPoint x="120" y="559.5" as="sourcePoint" />
            <mxPoint x="760" y="559.5" as="targetPoint" />
          </mxGeometry>
        </mxCell>
        <mxCell id="E54G0jagETd4hcooSOa8-99" value="" style="endArrow=none;html=1;" edge="1" parent="1" source="E54G0jagETd4hcooSOa8-151">
          <mxGeometry width="50" height="50" relative="1" as="geometry">
            <mxPoint x="120" y="599.5" as="sourcePoint" />
            <mxPoint x="760" y="599.5" as="targetPoint" />
          </mxGeometry>
        </mxCell>
        <mxCell id="E54G0jagETd4hcooSOa8-100" value="Weekly UI/UX" style="text;html=1;strokeColor=none;fillColor=none;align=center;verticalAlign=middle;whiteSpace=wrap;rounded=0;" vertex="1" parent="1">
          <mxGeometry x="40" y="630" width="80" height="20" as="geometry" />
        </mxCell>
        <mxCell id="E54G0jagETd4hcooSOa8-101" value="" style="endArrow=none;html=1;" edge="1" parent="1" source="E54G0jagETd4hcooSOa8-145">
          <mxGeometry width="50" height="50" relative="1" as="geometry">
            <mxPoint x="120" y="639.5" as="sourcePoint" />
            <mxPoint x="760" y="639.5" as="targetPoint" />
          </mxGeometry>
        </mxCell>
        <mxCell id="E54G0jagETd4hcooSOa8-103" value="" style="endArrow=none;html=1;" edge="1" parent="1" target="E54G0jagETd4hcooSOa8-102">
          <mxGeometry width="50" height="50" relative="1" as="geometry">
            <mxPoint x="120" y="400" as="sourcePoint" />
            <mxPoint x="760" y="400" as="targetPoint" />
          </mxGeometry>
        </mxCell>
        <mxCell id="E54G0jagETd4hcooSOa8-102" value="" style="ellipse;whiteSpace=wrap;html=1;fillColor=#dae8fc;strokeColor=#6c8ebf;" vertex="1" parent="1">
          <mxGeometry x="110" y="385" width="25" height="25" as="geometry" />
        </mxCell>
        <mxCell id="E54G0jagETd4hcooSOa8-104" value="" style="ellipse;whiteSpace=wrap;html=1;fillColor=#f8cecc;strokeColor=#b85450;" vertex="1" parent="1">
          <mxGeometry x="210" y="547.5" width="25" height="25" as="geometry" />
        </mxCell>
        <mxCell id="E54G0jagETd4hcooSOa8-105" value="" style="endArrow=none;html=1;" edge="1" parent="1" target="E54G0jagETd4hcooSOa8-104">
          <mxGeometry width="50" height="50" relative="1" as="geometry">
            <mxPoint x="120" y="559.5" as="sourcePoint" />
            <mxPoint x="760" y="559.5" as="targetPoint" />
          </mxGeometry>
        </mxCell>
        <mxCell id="E54G0jagETd4hcooSOa8-107" value="" style="ellipse;whiteSpace=wrap;html=1;fillColor=#f8cecc;strokeColor=#b85450;" vertex="1" parent="1">
          <mxGeometry x="200" y="587.5" width="25" height="25" as="geometry" />
        </mxCell>
        <mxCell id="E54G0jagETd4hcooSOa8-108" value="" style="endArrow=none;html=1;" edge="1" parent="1" target="E54G0jagETd4hcooSOa8-107">
          <mxGeometry width="50" height="50" relative="1" as="geometry">
            <mxPoint x="120" y="599.5" as="sourcePoint" />
            <mxPoint x="760" y="599.5" as="targetPoint" />
          </mxGeometry>
        </mxCell>
        <mxCell id="E54G0jagETd4hcooSOa8-106" value="" style="ellipse;whiteSpace=wrap;html=1;fillColor=#fff2cc;strokeColor=#d6b656;" vertex="1" parent="1">
          <mxGeometry x="150" y="510" width="25" height="25" as="geometry" />
        </mxCell>
        <mxCell id="E54G0jagETd4hcooSOa8-109" value="" style="endArrow=none;html=1;" edge="1" parent="1" target="E54G0jagETd4hcooSOa8-106">
          <mxGeometry width="50" height="50" relative="1" as="geometry">
            <mxPoint x="120" y="519.5" as="sourcePoint" />
            <mxPoint x="760" y="519.5" as="targetPoint" />
          </mxGeometry>
        </mxCell>
        <mxCell id="E54G0jagETd4hcooSOa8-110" value="" style="ellipse;whiteSpace=wrap;html=1;fillColor=#d5e8d4;strokeColor=#82b366;" vertex="1" parent="1">
          <mxGeometry x="175" y="625" width="25" height="25" as="geometry" />
        </mxCell>
        <mxCell id="E54G0jagETd4hcooSOa8-111" value="" style="endArrow=none;html=1;" edge="1" parent="1" target="E54G0jagETd4hcooSOa8-110">
          <mxGeometry width="50" height="50" relative="1" as="geometry">
            <mxPoint x="120" y="639.5" as="sourcePoint" />
            <mxPoint x="760" y="639.5" as="targetPoint" />
          </mxGeometry>
        </mxCell>
        <mxCell id="E54G0jagETd4hcooSOa8-112" value="" style="ellipse;whiteSpace=wrap;html=1;fillColor=#ffe6cc;strokeColor=#d79b00;" vertex="1" parent="1">
          <mxGeometry x="355" y="467.5" width="25" height="25" as="geometry" />
        </mxCell>
        <mxCell id="E54G0jagETd4hcooSOa8-113" value="" style="endArrow=none;html=1;" edge="1" parent="1" target="E54G0jagETd4hcooSOa8-112">
          <mxGeometry width="50" height="50" relative="1" as="geometry">
            <mxPoint x="120" y="479.5" as="sourcePoint" />
            <mxPoint x="760" y="479.5" as="targetPoint" />
          </mxGeometry>
        </mxCell>
        <mxCell id="E54G0jagETd4hcooSOa8-114" value="" style="endArrow=classic;html=1;exitX=0.5;exitY=1;exitDx=0;exitDy=0;entryX=0;entryY=0;entryDx=0;entryDy=0;" edge="1" parent="1" source="E54G0jagETd4hcooSOa8-102" target="E54G0jagETd4hcooSOa8-106">
          <mxGeometry width="50" height="50" relative="1" as="geometry">
            <mxPoint x="360" y="500" as="sourcePoint" />
            <mxPoint x="410" y="450" as="targetPoint" />
          </mxGeometry>
        </mxCell>
        <mxCell id="E54G0jagETd4hcooSOa8-116" value="" style="endArrow=classic;html=1;exitX=1;exitY=1;exitDx=0;exitDy=0;entryX=0;entryY=0.5;entryDx=0;entryDy=0;" edge="1" parent="1" source="E54G0jagETd4hcooSOa8-106" target="E54G0jagETd4hcooSOa8-104">
          <mxGeometry width="50" height="50" relative="1" as="geometry">
            <mxPoint x="132.5" y="420" as="sourcePoint" />
            <mxPoint x="163.66116523516803" y="523.661165235168" as="targetPoint" />
          </mxGeometry>
        </mxCell>
        <mxCell id="E54G0jagETd4hcooSOa8-117" value="" style="endArrow=classic;html=1;exitX=0.5;exitY=1;exitDx=0;exitDy=0;entryX=0;entryY=0;entryDx=0;entryDy=0;" edge="1" parent="1" source="E54G0jagETd4hcooSOa8-106" target="E54G0jagETd4hcooSOa8-107">
          <mxGeometry width="50" height="50" relative="1" as="geometry">
            <mxPoint x="181.33883476483197" y="541.338834764832" as="sourcePoint" />
            <mxPoint x="220" y="570" as="targetPoint" />
          </mxGeometry>
        </mxCell>
        <mxCell id="E54G0jagETd4hcooSOa8-118" value="" style="endArrow=classic;html=1;exitX=0.5;exitY=1;exitDx=0;exitDy=0;entryX=0;entryY=0;entryDx=0;entryDy=0;" edge="1" parent="1" source="E54G0jagETd4hcooSOa8-106" target="E54G0jagETd4hcooSOa8-110">
          <mxGeometry width="50" height="50" relative="1" as="geometry">
            <mxPoint x="172.5" y="545" as="sourcePoint" />
            <mxPoint x="213.66116523516803" y="601.161165235168" as="targetPoint" />
          </mxGeometry>
        </mxCell>
        <mxCell id="E54G0jagETd4hcooSOa8-121" value="" style="endArrow=classic;html=1;exitX=1;exitY=0.5;exitDx=0;exitDy=0;entryX=0;entryY=0.5;entryDx=0;entryDy=0;" edge="1" parent="1" source="E54G0jagETd4hcooSOa8-104" target="E54G0jagETd4hcooSOa8-120">
          <mxGeometry width="50" height="50" relative="1" as="geometry">
            <mxPoint x="360" y="500" as="sourcePoint" />
            <mxPoint x="410" y="450" as="targetPoint" />
          </mxGeometry>
        </mxCell>
        <mxCell id="E54G0jagETd4hcooSOa8-122" value="" style="ellipse;whiteSpace=wrap;html=1;fillColor=#fff2cc;strokeColor=#d6b656;" vertex="1" parent="1">
          <mxGeometry x="225" y="510" width="25" height="25" as="geometry" />
        </mxCell>
        <mxCell id="E54G0jagETd4hcooSOa8-124" value="" style="endArrow=none;html=1;" edge="1" parent="1" source="E54G0jagETd4hcooSOa8-106" target="E54G0jagETd4hcooSOa8-122">
          <mxGeometry width="50" height="50" relative="1" as="geometry">
            <mxPoint x="174.99984217868177" y="522.4371867227203" as="sourcePoint" />
            <mxPoint x="760" y="519.5" as="targetPoint" />
          </mxGeometry>
        </mxCell>
        <mxCell id="E54G0jagETd4hcooSOa8-125" value="" style="ellipse;whiteSpace=wrap;html=1;fillColor=#fff2cc;strokeColor=#d6b656;" vertex="1" parent="1">
          <mxGeometry x="320" y="507.5" width="25" height="25" as="geometry" />
        </mxCell>
        <mxCell id="E54G0jagETd4hcooSOa8-126" value="" style="endArrow=none;html=1;" edge="1" parent="1" source="E54G0jagETd4hcooSOa8-122" target="E54G0jagETd4hcooSOa8-125">
          <mxGeometry width="50" height="50" relative="1" as="geometry">
            <mxPoint x="249.99979357096004" y="522.428162105914" as="sourcePoint" />
            <mxPoint x="760" y="519.5" as="targetPoint" />
          </mxGeometry>
        </mxCell>
        <mxCell id="E54G0jagETd4hcooSOa8-127" value="" style="ellipse;whiteSpace=wrap;html=1;fillColor=#d5e8d4;strokeColor=#82b366;" vertex="1" parent="1">
          <mxGeometry x="255" y="625" width="25" height="25" as="geometry" />
        </mxCell>
        <mxCell id="E54G0jagETd4hcooSOa8-128" value="" style="endArrow=none;html=1;" edge="1" parent="1" source="E54G0jagETd4hcooSOa8-110" target="E54G0jagETd4hcooSOa8-127">
          <mxGeometry width="50" height="50" relative="1" as="geometry">
            <mxPoint x="199.99992359109183" y="637.5437060265422" as="sourcePoint" />
            <mxPoint x="760" y="639.5" as="targetPoint" />
          </mxGeometry>
        </mxCell>
        <mxCell id="E54G0jagETd4hcooSOa8-129" value="" style="endArrow=classic;html=1;exitX=1;exitY=0.5;exitDx=0;exitDy=0;entryX=0;entryY=0.5;entryDx=0;entryDy=0;" edge="1" parent="1" source="E54G0jagETd4hcooSOa8-106" target="E54G0jagETd4hcooSOa8-122">
          <mxGeometry width="50" height="50" relative="1" as="geometry">
            <mxPoint x="360" y="500" as="sourcePoint" />
            <mxPoint x="410" y="450" as="targetPoint" />
          </mxGeometry>
        </mxCell>
        <mxCell id="E54G0jagETd4hcooSOa8-131" value="" style="endArrow=classic;html=1;exitX=1;exitY=0.5;exitDx=0;exitDy=0;entryX=0;entryY=0.5;entryDx=0;entryDy=0;" edge="1" parent="1" source="E54G0jagETd4hcooSOa8-122" target="E54G0jagETd4hcooSOa8-125">
          <mxGeometry width="50" height="50" relative="1" as="geometry">
            <mxPoint x="195" y="542.5" as="sourcePoint" />
            <mxPoint x="245" y="542.5" as="targetPoint" />
          </mxGeometry>
        </mxCell>
        <mxCell id="E54G0jagETd4hcooSOa8-132" value="" style="endArrow=classic;html=1;exitX=1;exitY=0.5;exitDx=0;exitDy=0;entryX=0;entryY=0.5;entryDx=0;entryDy=0;" edge="1" parent="1" source="E54G0jagETd4hcooSOa8-110" target="E54G0jagETd4hcooSOa8-127">
          <mxGeometry width="50" height="50" relative="1" as="geometry">
            <mxPoint x="260" y="532.5" as="sourcePoint" />
            <mxPoint x="330" y="530" as="targetPoint" />
          </mxGeometry>
        </mxCell>
        <mxCell id="E54G0jagETd4hcooSOa8-133" value="" style="endArrow=classic;html=1;exitX=0.5;exitY=0;exitDx=0;exitDy=0;entryX=0;entryY=1;entryDx=0;entryDy=0;" edge="1" parent="1" source="E54G0jagETd4hcooSOa8-127" target="E54G0jagETd4hcooSOa8-125">
          <mxGeometry width="50" height="50" relative="1" as="geometry">
            <mxPoint x="210" y="647.5" as="sourcePoint" />
            <mxPoint x="265" y="647.5" as="targetPoint" />
          </mxGeometry>
        </mxCell>
        <mxCell id="E54G0jagETd4hcooSOa8-134" value="" style="endArrow=classic;html=1;exitX=0.5;exitY=0;exitDx=0;exitDy=0;entryX=0;entryY=1;entryDx=0;entryDy=0;" edge="1" parent="1" source="E54G0jagETd4hcooSOa8-120" target="E54G0jagETd4hcooSOa8-125">
          <mxGeometry width="50" height="50" relative="1" as="geometry">
            <mxPoint x="220" y="657.5" as="sourcePoint" />
            <mxPoint x="275" y="657.5" as="targetPoint" />
          </mxGeometry>
        </mxCell>
        <mxCell id="E54G0jagETd4hcooSOa8-135" value="" style="endArrow=none;html=1;" edge="1" parent="1" source="E54G0jagETd4hcooSOa8-104" target="E54G0jagETd4hcooSOa8-120">
          <mxGeometry width="50" height="50" relative="1" as="geometry">
            <mxPoint x="235" y="560" as="sourcePoint" />
            <mxPoint x="760" y="559.5" as="targetPoint" />
          </mxGeometry>
        </mxCell>
        <mxCell id="E54G0jagETd4hcooSOa8-120" value="" style="ellipse;whiteSpace=wrap;html=1;fillColor=#f8cecc;strokeColor=#b85450;" vertex="1" parent="1">
          <mxGeometry x="280" y="547.5" width="25" height="25" as="geometry" />
        </mxCell>
        <mxCell id="E54G0jagETd4hcooSOa8-136" value="" style="endArrow=classic;html=1;exitX=1;exitY=0;exitDx=0;exitDy=0;" edge="1" parent="1" source="E54G0jagETd4hcooSOa8-125">
          <mxGeometry width="50" height="50" relative="1" as="geometry">
            <mxPoint x="360" y="500" as="sourcePoint" />
            <mxPoint x="360" y="490" as="targetPoint" />
          </mxGeometry>
        </mxCell>
        <mxCell id="E54G0jagETd4hcooSOa8-137" value="" style="ellipse;whiteSpace=wrap;html=1;fillColor=#ffe6cc;strokeColor=#d79b00;" vertex="1" parent="1">
          <mxGeometry x="414" y="467.5" width="25" height="25" as="geometry" />
        </mxCell>
        <mxCell id="E54G0jagETd4hcooSOa8-138" value="" style="endArrow=none;html=1;" edge="1" parent="1" source="E54G0jagETd4hcooSOa8-112" target="E54G0jagETd4hcooSOa8-137">
          <mxGeometry width="50" height="50" relative="1" as="geometry">
            <mxPoint x="380" y="480" as="sourcePoint" />
            <mxPoint x="760" y="479.5" as="targetPoint" />
          </mxGeometry>
        </mxCell>
        <mxCell id="E54G0jagETd4hcooSOa8-139" value="" style="endArrow=classic;html=1;entryX=0;entryY=0.5;entryDx=0;entryDy=0;exitX=1;exitY=0.5;exitDx=0;exitDy=0;" edge="1" parent="1" source="E54G0jagETd4hcooSOa8-112" target="E54G0jagETd4hcooSOa8-137">
          <mxGeometry width="50" height="50" relative="1" as="geometry">
            <mxPoint x="360" y="500" as="sourcePoint" />
            <mxPoint x="410" y="450" as="targetPoint" />
          </mxGeometry>
        </mxCell>
        <mxCell id="E54G0jagETd4hcooSOa8-140" value="" style="ellipse;whiteSpace=wrap;html=1;fillColor=#dae8fc;strokeColor=#6c8ebf;" vertex="1" parent="1">
          <mxGeometry x="470" y="385" width="25" height="25" as="geometry" />
        </mxCell>
        <mxCell id="E54G0jagETd4hcooSOa8-141" value="" style="endArrow=none;html=1;" edge="1" parent="1" source="E54G0jagETd4hcooSOa8-160" target="E54G0jagETd4hcooSOa8-140">
          <mxGeometry width="50" height="50" relative="1" as="geometry">
            <mxPoint x="134.9999383890554" y="397.53924627437686" as="sourcePoint" />
            <mxPoint x="760" y="400" as="targetPoint" />
          </mxGeometry>
        </mxCell>
        <mxCell id="E54G0jagETd4hcooSOa8-142" value="" style="endArrow=classic;html=1;entryX=0;entryY=1;entryDx=0;entryDy=0;exitX=1;exitY=0;exitDx=0;exitDy=0;" edge="1" parent="1" source="E54G0jagETd4hcooSOa8-137" target="E54G0jagETd4hcooSOa8-140">
          <mxGeometry width="50" height="50" relative="1" as="geometry">
            <mxPoint x="360" y="500" as="sourcePoint" />
            <mxPoint x="410" y="450" as="targetPoint" />
          </mxGeometry>
        </mxCell>
        <mxCell id="E54G0jagETd4hcooSOa8-143" value="" style="ellipse;whiteSpace=wrap;html=1;fillColor=#fff2cc;strokeColor=#d6b656;" vertex="1" parent="1">
          <mxGeometry x="460" y="505" width="25" height="25" as="geometry" />
        </mxCell>
        <mxCell id="E54G0jagETd4hcooSOa8-144" value="" style="endArrow=classic;html=1;entryX=0;entryY=0;entryDx=0;entryDy=0;exitX=1;exitY=1;exitDx=0;exitDy=0;" edge="1" parent="1" source="E54G0jagETd4hcooSOa8-137" target="E54G0jagETd4hcooSOa8-143">
          <mxGeometry width="50" height="50" relative="1" as="geometry">
            <mxPoint x="360" y="500" as="sourcePoint" />
            <mxPoint x="410" y="450" as="targetPoint" />
          </mxGeometry>
        </mxCell>
        <mxCell id="E54G0jagETd4hcooSOa8-145" value="" style="ellipse;whiteSpace=wrap;html=1;fillColor=#d5e8d4;strokeColor=#82b366;" vertex="1" parent="1">
          <mxGeometry x="520" y="625" width="25" height="25" as="geometry" />
        </mxCell>
        <mxCell id="E54G0jagETd4hcooSOa8-146" value="" style="endArrow=none;html=1;" edge="1" parent="1" source="E54G0jagETd4hcooSOa8-127" target="E54G0jagETd4hcooSOa8-145">
          <mxGeometry width="50" height="50" relative="1" as="geometry">
            <mxPoint x="279.99989672279867" y="637.5508125883041" as="sourcePoint" />
            <mxPoint x="760" y="639.5" as="targetPoint" />
          </mxGeometry>
        </mxCell>
        <mxCell id="E54G0jagETd4hcooSOa8-147" value="" style="endArrow=classic;html=1;exitX=1;exitY=0.5;exitDx=0;exitDy=0;" edge="1" parent="1" source="E54G0jagETd4hcooSOa8-127">
          <mxGeometry width="50" height="50" relative="1" as="geometry">
            <mxPoint x="360" y="500" as="sourcePoint" />
            <mxPoint x="520" y="638" as="targetPoint" />
          </mxGeometry>
        </mxCell>
        <mxCell id="E54G0jagETd4hcooSOa8-148" value="" style="endArrow=classic;html=1;entryX=0.5;entryY=0;entryDx=0;entryDy=0;exitX=1;exitY=1;exitDx=0;exitDy=0;" edge="1" parent="1" source="E54G0jagETd4hcooSOa8-143" target="E54G0jagETd4hcooSOa8-145">
          <mxGeometry width="50" height="50" relative="1" as="geometry">
            <mxPoint x="360" y="500" as="sourcePoint" />
            <mxPoint x="410" y="450" as="targetPoint" />
          </mxGeometry>
        </mxCell>
        <mxCell id="E54G0jagETd4hcooSOa8-149" value="" style="ellipse;whiteSpace=wrap;html=1;fillColor=#f8cecc;strokeColor=#b85450;" vertex="1" parent="1">
          <mxGeometry x="380" y="590" width="25" height="25" as="geometry" />
        </mxCell>
        <mxCell id="E54G0jagETd4hcooSOa8-150" value="" style="endArrow=none;html=1;" edge="1" parent="1" source="E54G0jagETd4hcooSOa8-107" target="E54G0jagETd4hcooSOa8-149">
          <mxGeometry width="50" height="50" relative="1" as="geometry">
            <mxPoint x="225" y="600" as="sourcePoint" />
            <mxPoint x="760" y="599.5" as="targetPoint" />
          </mxGeometry>
        </mxCell>
        <mxCell id="E54G0jagETd4hcooSOa8-151" value="" style="ellipse;whiteSpace=wrap;html=1;fillColor=#f8cecc;strokeColor=#b85450;" vertex="1" parent="1">
          <mxGeometry x="540" y="590" width="25" height="25" as="geometry" />
        </mxCell>
        <mxCell id="E54G0jagETd4hcooSOa8-152" value="" style="endArrow=none;html=1;" edge="1" parent="1" source="E54G0jagETd4hcooSOa8-149" target="E54G0jagETd4hcooSOa8-151">
          <mxGeometry width="50" height="50" relative="1" as="geometry">
            <mxPoint x="404.99958239217176" y="602.3978235771756" as="sourcePoint" />
            <mxPoint x="760" y="599.5" as="targetPoint" />
          </mxGeometry>
        </mxCell>
        <mxCell id="E54G0jagETd4hcooSOa8-153" value="" style="endArrow=classic;html=1;exitX=1;exitY=0.5;exitDx=0;exitDy=0;entryX=0;entryY=0.5;entryDx=0;entryDy=0;" edge="1" parent="1" source="E54G0jagETd4hcooSOa8-107" target="E54G0jagETd4hcooSOa8-149">
          <mxGeometry width="50" height="50" relative="1" as="geometry">
            <mxPoint x="360" y="500" as="sourcePoint" />
            <mxPoint x="410" y="450" as="targetPoint" />
          </mxGeometry>
        </mxCell>
        <mxCell id="E54G0jagETd4hcooSOa8-155" value="" style="endArrow=classic;html=1;exitX=1;exitY=0.5;exitDx=0;exitDy=0;entryX=0;entryY=0.5;entryDx=0;entryDy=0;" edge="1" parent="1" source="E54G0jagETd4hcooSOa8-149" target="E54G0jagETd4hcooSOa8-151">
          <mxGeometry width="50" height="50" relative="1" as="geometry">
            <mxPoint x="360" y="500" as="sourcePoint" />
            <mxPoint x="410" y="450" as="targetPoint" />
          </mxGeometry>
        </mxCell>
        <mxCell id="E54G0jagETd4hcooSOa8-156" value="" style="endArrow=classic;html=1;entryX=0;entryY=0;entryDx=0;entryDy=0;" edge="1" parent="1" target="E54G0jagETd4hcooSOa8-151">
          <mxGeometry width="50" height="50" relative="1" as="geometry">
            <mxPoint x="480" y="530" as="sourcePoint" />
            <mxPoint x="410" y="450" as="targetPoint" />
          </mxGeometry>
        </mxCell>
        <mxCell id="E54G0jagETd4hcooSOa8-157" value="" style="endArrow=classic;html=1;exitX=1;exitY=1;exitDx=0;exitDy=0;entryX=0;entryY=0.5;entryDx=0;entryDy=0;" edge="1" parent="1" target="E54G0jagETd4hcooSOa8-159">
          <mxGeometry width="50" height="50" relative="1" as="geometry">
            <mxPoint x="134.99883476483197" y="402.498834764832" as="sourcePoint" />
            <mxPoint x="453.66" y="553.6600000000001" as="targetPoint" />
          </mxGeometry>
        </mxCell>
        <mxCell id="E54G0jagETd4hcooSOa8-159" value="" style="ellipse;whiteSpace=wrap;html=1;fillColor=#e1d5e7;strokeColor=#9673a6;" vertex="1" parent="1">
          <mxGeometry x="163.66" y="423.66" width="25" height="25" as="geometry" />
        </mxCell>
        <mxCell id="E54G0jagETd4hcooSOa8-160" value="" style="ellipse;whiteSpace=wrap;html=1;fillColor=#dae8fc;strokeColor=#6c8ebf;" vertex="1" parent="1">
          <mxGeometry x="200" y="385" width="25" height="25" as="geometry" />
        </mxCell>
        <mxCell id="E54G0jagETd4hcooSOa8-161" value="" style="endArrow=none;html=1;" edge="1" parent="1" source="E54G0jagETd4hcooSOa8-102" target="E54G0jagETd4hcooSOa8-160">
          <mxGeometry width="50" height="50" relative="1" as="geometry">
            <mxPoint x="135" y="397.5" as="sourcePoint" />
            <mxPoint x="470" y="397.5" as="targetPoint" />
          </mxGeometry>
        </mxCell>
        <mxCell id="E54G0jagETd4hcooSOa8-158" value="" style="endArrow=classic;html=1;exitX=1;exitY=0.5;exitDx=0;exitDy=0;" edge="1" parent="1" source="E54G0jagETd4hcooSOa8-159">
          <mxGeometry width="50" height="50" relative="1" as="geometry">
            <mxPoint x="144.99883476483197" y="412.498834764832" as="sourcePoint" />
            <mxPoint x="210" y="410" as="targetPoint" />
          </mxGeometry>
        </mxCell>
        <mxCell id="E54G0jagETd4hcooSOa8-162" value="" style="ellipse;whiteSpace=wrap;html=1;fillColor=#fff2cc;strokeColor=#d6b656;" vertex="1" parent="1">
          <mxGeometry x="590" y="507.5" width="25" height="25" as="geometry" />
        </mxCell>
        <mxCell id="E54G0jagETd4hcooSOa8-163" value="" style="endArrow=none;html=1;" edge="1" parent="1" source="E54G0jagETd4hcooSOa8-125" target="E54G0jagETd4hcooSOa8-162">
          <mxGeometry width="50" height="50" relative="1" as="geometry">
            <mxPoint x="345" y="520" as="sourcePoint" />
            <mxPoint x="760" y="519.5" as="targetPoint" />
          </mxGeometry>
        </mxCell>
        <mxCell id="E54G0jagETd4hcooSOa8-164" value="" style="endArrow=classic;html=1;entryX=0;entryY=1;entryDx=0;entryDy=0;exitX=1;exitY=0;exitDx=0;exitDy=0;" edge="1" parent="1" source="E54G0jagETd4hcooSOa8-151" target="E54G0jagETd4hcooSOa8-162">
          <mxGeometry width="50" height="50" relative="1" as="geometry">
            <mxPoint x="360" y="500" as="sourcePoint" />
            <mxPoint x="410" y="450" as="targetPoint" />
          </mxGeometry>
        </mxCell>
        <mxCell id="E54G0jagETd4hcooSOa8-165" value="" style="ellipse;whiteSpace=wrap;html=1;fillColor=#d5e8d4;strokeColor=#82b366;" vertex="1" parent="1">
          <mxGeometry x="570" y="627.5" width="25" height="25" as="geometry" />
        </mxCell>
        <mxCell id="E54G0jagETd4hcooSOa8-166" value="" style="endArrow=classic;html=1;exitX=0.5;exitY=0;exitDx=0;exitDy=0;" edge="1" parent="1" source="E54G0jagETd4hcooSOa8-165">
          <mxGeometry width="50" height="50" relative="1" as="geometry">
            <mxPoint x="571.338834764832" y="603.661165235168" as="sourcePoint" />
            <mxPoint x="604" y="530" as="targetPoint" />
          </mxGeometry>
        </mxCell>
        <mxCell id="E54G0jagETd4hcooSOa8-167" value="" style="endArrow=classic;html=1;entryX=0;entryY=0.5;entryDx=0;entryDy=0;exitX=1;exitY=0.5;exitDx=0;exitDy=0;" edge="1" parent="1" source="E54G0jagETd4hcooSOa8-145" target="E54G0jagETd4hcooSOa8-165">
          <mxGeometry width="50" height="50" relative="1" as="geometry">
            <mxPoint x="581.338834764832" y="613.661165235168" as="sourcePoint" />
            <mxPoint x="613.661165235168" y="548.838834764832" as="targetPoint" />
          </mxGeometry>
        </mxCell>
        <mxCell id="E54G0jagETd4hcooSOa8-168" value="" style="ellipse;whiteSpace=wrap;html=1;fillColor=#ffe6cc;strokeColor=#d79b00;" vertex="1" parent="1">
          <mxGeometry x="630" y="470" width="25" height="25" as="geometry" />
        </mxCell>
        <mxCell id="E54G0jagETd4hcooSOa8-169" value="" style="ellipse;whiteSpace=wrap;html=1;fillColor=#dae8fc;strokeColor=#6c8ebf;" vertex="1" parent="1">
          <mxGeometry x="690" y="385" width="25" height="25" as="geometry" />
        </mxCell>
        <mxCell id="E54G0jagETd4hcooSOa8-170" value="" style="endArrow=none;html=1;" edge="1" parent="1" source="E54G0jagETd4hcooSOa8-140" target="E54G0jagETd4hcooSOa8-169">
          <mxGeometry width="50" height="50" relative="1" as="geometry">
            <mxPoint x="494.999674190678" y="397.5902503551674" as="sourcePoint" />
            <mxPoint x="760" y="400" as="targetPoint" />
          </mxGeometry>
        </mxCell>
        <mxCell id="E54G0jagETd4hcooSOa8-171" value="" style="ellipse;whiteSpace=wrap;html=1;fillColor=#fff2cc;strokeColor=#d6b656;" vertex="1" parent="1">
          <mxGeometry x="680" y="510" width="25" height="25" as="geometry" />
        </mxCell>
        <mxCell id="E54G0jagETd4hcooSOa8-172" value="" style="endArrow=classic;html=1;entryX=0;entryY=1;entryDx=0;entryDy=0;exitX=1;exitY=0;exitDx=0;exitDy=0;" edge="1" parent="1" source="E54G0jagETd4hcooSOa8-162" target="E54G0jagETd4hcooSOa8-168">
          <mxGeometry width="50" height="50" relative="1" as="geometry">
            <mxPoint x="360" y="500" as="sourcePoint" />
            <mxPoint x="410" y="450" as="targetPoint" />
          </mxGeometry>
        </mxCell>
        <mxCell id="E54G0jagETd4hcooSOa8-173" value="" style="endArrow=classic;html=1;entryX=0;entryY=0;entryDx=0;entryDy=0;exitX=1;exitY=1;exitDx=0;exitDy=0;" edge="1" parent="1" source="E54G0jagETd4hcooSOa8-168" target="E54G0jagETd4hcooSOa8-171">
          <mxGeometry width="50" height="50" relative="1" as="geometry">
            <mxPoint x="621.338834764832" y="521.161165235168" as="sourcePoint" />
            <mxPoint x="643.661165235168" y="501.338834764832" as="targetPoint" />
          </mxGeometry>
        </mxCell>
        <mxCell id="E54G0jagETd4hcooSOa8-174" value="" style="endArrow=classic;html=1;entryX=0;entryY=1;entryDx=0;entryDy=0;" edge="1" parent="1" target="E54G0jagETd4hcooSOa8-169">
          <mxGeometry width="50" height="50" relative="1" as="geometry">
            <mxPoint x="650" y="470" as="sourcePoint" />
            <mxPoint x="643.661165235168" y="501.338834764832" as="targetPoint" />
          </mxGeometry>
        </mxCell>
        <mxCell id="E54G0jagETd4hcooSOa8-175" value="" style="endArrow=classic;html=1;exitX=1;exitY=1;exitDx=0;exitDy=0;entryX=0;entryY=0;entryDx=0;entryDy=0;" edge="1" parent="1" source="E54G0jagETd4hcooSOa8-159" target="E54G0jagETd4hcooSOa8-122">
          <mxGeometry width="50" height="50" relative="1" as="geometry">
            <mxPoint x="144.99883476483205" y="412.49883476483205" as="sourcePoint" />
            <mxPoint x="173.6600000000126" y="446.1600000000001" as="targetPoint" />
          </mxGeometry>
        </mxCell>
        <mxCell id="E54G0jagETd4hcooSOa8-176" value="GIT-FLOW" style="text;html=1;strokeColor=none;fillColor=none;align=center;verticalAlign=middle;whiteSpace=wrap;rounded=0;glass=0;strokeWidth=3;fontStyle=1" vertex="1" parent="1">
          <mxGeometry x="340" y="350" width="147.5" height="20" as="geometry" />
        </mxCell>
        <mxCell id="E54G0jagETd4hcooSOa8-177" value="Development Branch Free&amp;nbsp;" style="text;html=1;strokeColor=none;fillColor=none;align=center;verticalAlign=middle;whiteSpace=wrap;rounded=0;glass=0;fontStyle=1" vertex="1" parent="1">
          <mxGeometry x="310" y="30" width="200" height="20" as="geometry" />
        </mxCell>
      </root>
    </mxGraphModel>
  </diagram>
</mxfile>
